P3
# Created by GIMP version 2.10.20 PNM plug-in
4 4
255
255
0
0
0
22
255
0
255
0
255
0
253
255
0
0
0
22
255
0
255
0
255
0
253
0
0
0
0
0
0
0
0
0
0
0
0
255
0
0
0
22
255
0
255
0
255
0
253
